# xmcd
# Track frame offsets:
# 187
# 13102
# 27600
# 43805
# 57962
# 74140
# 90825
# 105812
# 121840
# 140070
#
# Disc length: 2047 seconds
# Revision: 2
# Processed by: cddbd v1.5.1PL2 Copyright (c) Steve Scherf et al.
# Submitted via: VisiTrax 2.10.0.248 - For more info visit www.synapsa.com
#
DISCID=8707fd0a
DTITLE=McBride and The Ride - Burnin' Up the Road
DYEAR=1990
DGENRE=Country
TTITLE0=Ain't No Big Deal
TTITLE1=Felicia
TTITLE2=Same Old Star
TTITLE3=Every Step of the Way
TTITLE4=Chains of Memory
TTITLE5=Stone Country
TTITLE6=Can I Count On You
TTITLE7=Burnin' Up the Road
TTITLE8=Nobody's Fool
TTITLE9=Turn to Blue
EXTD=
EXTT0=
EXTT1=
EXTT2=
EXTT3=
EXTT4=
EXTT5=
EXTT6=
EXTT7=
EXTT8=
EXTT9=
PLAYORDER=
